<svg xmlns="http://www.w3.org/2000/svg" xmlns:xlink="http://www.w3.org/1999/xlink" viewBox="0 0 421.97 291.3"><defs><style>.cls-1{fill:none;}.cls-2{fill:#c49a6c;}.cls-3{fill:#a97c50;}.cls-4{fill:#8b5e3c;}.cls-5{fill:url(#New_Pattern_3);}</style><pattern id="New_Pattern_3" data-name="New Pattern 3" width="85" height="136" patternUnits="userSpaceOnUse" viewBox="0 0 85 136"><rect class="cls-1" width="85" height="136"/><polygon class="cls-2" points="127.49 113.54 85 136 42.55 113.47 85.04 91 127.49 113.54"/><polygon class="cls-3" points="85 136 84.96 181 42.51 158.46 42.55 113.47 85 136"/><polygon class="cls-4" points="127.49 113.54 127.49 115.08 127.45 158.53 84.96 181 85 136 127.49 113.54"/><polygon class="cls-2" points="42.49 113.54 0 136 -42.45 113.47 0.04 91 42.49 113.54"/><polygon class="cls-4" points="42.49 113.54 42.49 115.08 42.45 158.53 -0.04 181 0 136 42.49 113.54"/><polygon class="cls-2" points="84.99 45.54 42.5 68 0.05 45.47 42.54 23 84.99 45.54"/><polygon class="cls-3" points="42.5 68 42.46 113 0.01 90.46 0.05 45.47 42.5 68"/><polygon class="cls-4" points="84.99 45.54 84.99 47.08 84.95 90.53 42.46 113 42.5 68 84.99 45.54"/><polygon class="cls-3" points="85 0 84.96 44.99 42.51 22.46 42.55 -22.53 85 0"/><polygon class="cls-4" points="127.49 -22.46 127.49 -20.92 127.45 22.53 84.96 44.99 85 0 127.49 -22.46"/><polygon class="cls-4" points="42.49 -22.46 42.49 -20.92 42.45 22.53 -0.04 44.99 0 0 42.49 -22.46"/></pattern></defs><g id="Layer_2" data-name="Layer 2"><g id="Layer_1-2" data-name="Layer 1"><rect class="cls-5" width="421.97" height="291.3"/></g></g></svg>