<?xml version="1.0" encoding="utf-8"?>
<!-- Generator: Adobe Illustrator 24.2.1, SVG Export Plug-In . SVG Version: 6.00 Build 0)  -->
<svg version="1.1" id="Layer_1" xmlns="http://www.w3.org/2000/svg" xmlns:xlink="http://www.w3.org/1999/xlink" x="0px" y="0px"
	 viewBox="0 0 1000 1000" style="enable-background:new 0 0 1000 1000;" xml:space="preserve">
<style type="text/css">
	.st0{fill:none;}
	.st1{fill:#84b2d0;}
	.st2{fill:#0965a1;}
	.st3{fill:#053351;}
	.st4{fill:url(#Memento);}
</style>
<pattern  width="112.7" height="194" patternUnits="userSpaceOnUse" id="Memento" viewBox="56.3 -257.8 112.7 194" style="overflow:visible;">
	<g>
		<rect x="56.3" y="-257.8" class="st0" width="112.7" height="194"/>
		<g>
			<polygon class="st1" points="225.3,-95.6 168.9,-63.8 112.7,-95.7 169,-127.6 			"/>
			<polygon class="st2" points="168.9,-63.8 168.9,0 112.6,-31.9 112.7,-95.7 			"/>
			<polygon class="st3" points="225.3,-95.6 225.3,-93.5 225.2,-31.8 168.9,0 168.9,-63.8 			"/>
		</g>
		<g>
			<polygon class="st1" points="112.6,-95.6 56.3,-63.8 0,-95.7 56.3,-127.6 			"/>
			<polygon class="st3" points="112.6,-95.6 112.6,-93.5 112.6,-31.8 56.2,0 56.3,-63.8 			"/>
		</g>
		<g>
			<polygon class="st1" points="168.9,-192.6 112.6,-160.8 56.3,-192.7 112.7,-224.6 			"/>
			<polygon class="st2" points="112.6,-160.8 112.6,-97 56.3,-128.9 56.3,-192.7 			"/>
			<polygon class="st3" points="168.9,-192.6 168.9,-190.5 168.9,-128.8 112.6,-97 112.6,-160.8 			"/>
		</g>
		<g>
			<polygon class="st2" points="168.9,-257.8 168.9,-194 112.6,-225.9 112.7,-289.7 			"/>
			<polygon class="st3" points="225.3,-289.6 225.3,-287.5 225.2,-225.8 168.9,-194 168.9,-257.8 			"/>
		</g>
		<g>
			<polygon class="st3" points="112.6,-289.6 112.6,-287.5 112.6,-225.8 56.2,-194 56.3,-257.8 			"/>
		</g>
	</g>
</pattern>
<rect class="st4" width="1000" height="1000"/>
</svg>
